<?xml version="1.0" encoding="UTF-8"?>
<svg id="a" data-name="Ebene 1" xmlns="http://www.w3.org/2000/svg" width="2048" height="2048" viewBox="0 0 2048 2048">
  <path d="M651.3907,1798.4312h-283.04c-162.748,0-294.8341-128.3079-294.8341-286.4018v-976.058c0-158.0947,132.0861-286.4026,294.8341-286.4026h433.9947c51.8909,0,94.347,32.077,94.347,82.4839v128.3079h-474.0923c-58.9672,0-106.1402,45.8249-106.1402,103.1049v921.069c0,57.2809,47.173,103.1049,106.1402,103.1049h174.5413c58.9663,0,106.1402-45.824,106.1402-103.1049v-355.1386h-153.3132c-51.8909,0-94.347-32.077-94.347-82.4839v-45.824c0-50.4069,42.4561-82.4839,94.347-82.4839h396.2556v593.4253c0,158.0938-132.0852,286.4018-294.8332,286.4018Z"/>
  <g>
    <path d="M1974.4834,1522.0186v227.705c0,26.7894-17.0479,48.7076-43.8364,48.7076h-68.1897v-248.4056c0-30.4421-24.3533-54.7955-54.7955-54.7955h-133.9443c-30.4421,0-54.7955,24.3533-54.7955,54.7955v86.4543c0,84.02-68.1897,152.2098-152.2093,152.2098h-163.1684c-84.02,0-152.2098-68.1897-152.2098-152.2098v-182.651c0-26.7894,17.0474-48.7076,43.8364-48.7076h68.1897v203.3525c0,30.4421,24.3538,54.7955,54.7955,54.7955h133.9443c30.4421,0,54.7955-24.3533,54.7955-54.7955v-86.4552c0-84.02,68.1897-152.2098,152.2098-152.2098h163.168c84.02,0,152.2098,68.1897,152.2098,152.2098Z"/>
    <path d="M1974.4834,868.1421v354.3438c0,26.7885-21.9182,48.7067-48.7067,48.7067h-17.0479c-14.6118,0-35.3124-9.7415-47.4891-15.8294l-597.8791-275.195v275.195h-68.1897c-26.789,0-43.8364-21.9182-43.8364-48.7076v-327.5544c0-26.7885,17.0474-48.7067,43.8364-48.7067h13.3942c13.3947,0,36.5305,8.523,57.2311,18.2645l596.661,273.9774v-303.2011h68.1897c26.7885,0,43.8364,21.9182,43.8364,48.7067Z"/>
    <path d="M1974.4834,406.6489v283.7189h-775.6593c-26.789,0-47.4896-17.0479-47.4896-45.054v-40.1837l45.054-30.4421c8.5239-6.0879,10.9591-13.3942,10.9591-19.4821,0-28.007-59.6658-56.0131-59.6658-129.074v-13.3942c0-87.6728,69.4073-137.598,148.5561-137.598h166.8216c47.4896,0,88.8903,38.9661,96.1963,75.4961h3.6532c4.8708-51.1418,37.748-101.067,104.7197-101.067h165.604c70.6258,0,141.2507,59.6667,141.2507,157.0801ZM1312.0678,400.561c-26.789,0-48.7071,21.9182-48.7071,48.7067v66.9722c0,26.7894,21.9182,48.7076,48.7071,48.7076h194.8281v-115.6798c0-26.7885-21.9182-48.7067-48.7071-48.7067h-146.121ZM1667.6287,374.9892c-26.7885,0-48.7067,21.9182-48.7067,48.7076v141.2507h243.5353v-141.2507c0-26.7894-21.9182-48.7076-48.7067-48.7076h-146.1219Z"/>
  </g>
</svg>